<svg xmlns="http://www.w3.org/2000/svg" viewBox="0 0 300 1200" width="300" height="1200"><rect width="300" height="1200" fill="#fff"/><g fill="#fff" stroke="#000" stroke-width="6" stroke-linejoin="round" stroke-linecap="round"><g transform="translate(300 0) scale(-1 1)"><g transform="translate(150 60) rotate(70)"><path d="M0 0 Q 60.0 -54.0 120 0 Q 60.0 54.0 0 0 Z"/><path d="M0 0 L 120 0" fill="none"/></g><g transform="translate(150 70) rotate(110)"><path d="M0 0 Q 55.0 -49.5 110 0 Q 55.0 49.5 0 0 Z"/><path d="M0 0 L 110 0" fill="none"/></g><circle cx="150" cy="290" r="110.0"/><circle cx="150" cy="290" r="82.5"/><circle cx="150" cy="290" r="55.0"/><circle cx="150" cy="290" r="27.5"/><polygon points="86.3,434.5 91.7,458.7 115.6,465.0 94.3,477.6 95.8,502.4 77.2,486.0 54.1,495.0 64.0,472.3 48.2,453.1 72.9,455.4"/><path transform="translate(215 460) rotate(15)" d="M0 -20 C 18.0 2.0 12.0 20.0 0 20 C -12.0 20.0 -18.0 2.0 0 -20 Z"/><g transform="translate(150 560) rotate(90)"><rect x="0" y="-9" width="300" height="18" rx="4"/><polygon points="294,-30 362,0 294,30"/><polygon points="-10,-9 50,-9 20,-43 -40,-43"/><polygon points="-10,9 50,9 20,43 -40,43"/></g><g transform="translate(60 640) rotate(20)"><path d="M0 0 Q 45.0 -40.5 90 0 Q 45.0 40.5 0 0 Z"/><path d="M0 0 L 90 0" fill="none"/></g><g transform="translate(240 700) rotate(160)"><path d="M0 0 Q 45.0 -40.5 90 0 Q 45.0 40.5 0 0 Z"/><path d="M0 0 L 90 0" fill="none"/></g><polygon points="214.1,896.5 226.7,916.2 250.0,914.0 235.2,932.1 244.5,953.6 222.7,945.1 205.1,960.6 206.5,937.2 186.3,925.3 209.0,919.4"/><path transform="translate(80 940) rotate(-10)" d="M0 -20 C 18.0 2.0 12.0 20.0 0 20 C -12.0 20.0 -18.0 2.0 0 -20 Z"/><circle cx="150" cy="1060" r="96.0"/><circle cx="150" cy="1060" r="72.0"/><circle cx="150" cy="1060" r="48.0"/><circle cx="150" cy="1060" r="24.0"/><g transform="translate(60 1185) rotate(-70)"><path d="M0 0 Q 55.0 -49.5 110 0 Q 55.0 49.5 0 0 Z"/><path d="M0 0 L 110 0" fill="none"/></g><g transform="translate(240 1185) rotate(-110)"><path d="M0 0 Q 55.0 -49.5 110 0 Q 55.0 49.5 0 0 Z"/><path d="M0 0 L 110 0" fill="none"/></g></g></g></svg>
